<svg id="undraw_blooming_jtv6" xmlns="http://www.w3.org/2000/svg" width="291.421" height="251.75" viewBox="0 0 291.421 251.75">
  <ellipse id="Ellipse_40" data-name="Ellipse 40" cx="138.83" cy="35.964" rx="138.83" ry="35.964" transform="translate(0 179.821)" fill="#f2f2f2"/>
  <circle id="Ellipse_41" data-name="Ellipse 41" cx="23.661" cy="23.661" r="23.661" transform="translate(167.995 43.35)" fill="#6c63ff"/>
  <circle id="Ellipse_42" data-name="Ellipse 42" cx="23.661" cy="23.661" r="23.661" transform="translate(127.777 99.037)" fill="#6c63ff"/>
  <ellipse id="Ellipse_43" data-name="Ellipse 43" cx="138.83" cy="35.964" rx="138.83" ry="35.964" transform="translate(12.762 172.474)" fill="none" stroke="#3f3d56" stroke-miterlimit="10" stroke-width="2"/>
  <circle id="Ellipse_44" data-name="Ellipse 44" cx="30.55" cy="30.55" r="30.55" transform="translate(17.713 135.543)" fill="#2f2e41"/>
  <rect id="Rectangle_109" data-name="Rectangle 109" width="9.281" height="16.629" transform="translate(34.342 190.069)" fill="#2f2e41"/>
  <rect id="Rectangle_110" data-name="Rectangle 110" width="9.281" height="16.629" transform="translate(52.904 190.069)" fill="#2f2e41"/>
  <ellipse id="Ellipse_45" data-name="Ellipse 45" cx="7.734" cy="2.9" rx="7.734" ry="2.9" transform="translate(34.342 203.991)" fill="#2f2e41"/>
  <ellipse id="Ellipse_46" data-name="Ellipse 46" cx="7.734" cy="2.9" rx="7.734" ry="2.9" transform="translate(52.904 203.604)" fill="#2f2e41"/>
  <circle id="Ellipse_47" data-name="Ellipse 47" cx="10.441" cy="10.441" r="10.441" transform="translate(38.596 147.918)" fill="#fff"/>
  <circle id="Ellipse_48" data-name="Ellipse 48" cx="3.48" cy="3.48" r="3.48" transform="translate(45.557 154.878)" fill="#3f3d56"/>
  <path id="Tracé_105" data-name="Tracé 105" d="M271.956,440.034c-2.467-11.047,5.419-22.21,17.612-24.933s24.079,4.026,26.546,15.073S310.5,445.3,298.305,448.018,274.422,451.081,271.956,440.034Z" transform="translate(-253.327 -302.352)" fill="#6c63ff"/>
  <ellipse id="Ellipse_49" data-name="Ellipse 49" cx="15.275" cy="4.795" rx="15.275" ry="4.795" transform="translate(59.1 157.193) rotate(-23.171)" fill="#2f2e41"/>
  <ellipse id="Ellipse_50" data-name="Ellipse 50" cx="15.275" cy="4.795" rx="15.275" ry="4.795" transform="translate(1.866 177.688) rotate(-23.171)" fill="#2f2e41"/>
  <path id="Tracé_106" data-name="Tracé 106" d="M343.175,573.646c0,2.99-7.7,8.894-16.242,8.894s-16.629-5.518-16.629-8.508,8.086-2.32,16.629-2.32S343.175,570.656,343.175,573.646Z" transform="translate(-277.123 -398.659)" fill="#fff"/>
  <circle id="Ellipse_51" data-name="Ellipse 51" cx="23.661" cy="23.661" r="23.661" transform="translate(82.531 143.509)" fill="#6c63ff"/>
  <line id="Ligne_54" data-name="Ligne 54" y1="42.921" transform="translate(106.171 167.04)" fill="#3f3d56" stroke="#3f3d56" stroke-miterlimit="10" stroke-width="2"/>
  <circle id="Ellipse_52" data-name="Ellipse 52" cx="6.07" cy="6.07" r="6.07" transform="translate(100.102 160.97)" fill="#3f3d56"/>
  <path id="Tracé_107" data-name="Tracé 107" d="M469.484,598.437s-.867-18.649-18.642-16.481" transform="translate(-363.312 -404.944)" fill="#3f3d56"/>
  <line id="Ligne_55" data-name="Ligne 55" y1="143.163" transform="translate(191.671 67.099)" fill="#3f3d56" stroke="#3f3d56" stroke-miterlimit="10" stroke-width="2"/>
  <circle id="Ellipse_53" data-name="Ellipse 53" cx="6.07" cy="6.07" r="6.07" transform="translate(185.601 60.961)" fill="#3f3d56"/>
  <circle id="Ellipse_54" data-name="Ellipse 54" cx="6.07" cy="6.07" r="6.07" transform="translate(166.959 164.54)" fill="#3f3d56"/>
  <path id="Tracé_108" data-name="Tracé 108" d="M690.577,351.591s-.867-18.649-18.642-16.481" transform="translate(-498.906 -253.557)" fill="#3f3d56"/>
  <path id="Tracé_109" data-name="Tracé 109" d="M690.577,488.3s-.867-18.649-18.642-16.481" transform="translate(-498.906 -337.401)" fill="#3f3d56"/>
  <path id="Tracé_110" data-name="Tracé 110" d="M690.577,603.664s3.9-36.249-18.642-37.983" transform="translate(-498.906 -395.07)" fill="none" stroke="#3f3d56" stroke-miterlimit="10" stroke-width="2"/>
  <circle id="Ellipse_55" data-name="Ellipse 55" cx="6.07" cy="6.07" r="6.07" transform="translate(204.246 164.54)" fill="#3f3d56"/>
  <path id="Tracé_111" data-name="Tracé 111" d="M719.739,603.664s-3.9-36.249,18.642-37.983" transform="translate(-528.066 -395.07)" fill="none" stroke="#3f3d56" stroke-miterlimit="10" stroke-width="2"/>
  <circle id="Ellipse_56" data-name="Ellipse 56" cx="6.07" cy="6.07" r="6.07" transform="translate(204.616 107.605)" fill="#3f3d56"/>
  <path id="Tracé_112" data-name="Tracé 112" d="M720.7,454.5s-3.9-34.316,18.642-36.05" transform="translate(-528.652 -304.777)" fill="none" stroke="#3f3d56" stroke-miterlimit="10" stroke-width="2"/>
  <line id="Ligne_56" data-name="Ligne 56" y1="87.388" transform="translate(151.459 122.672)" fill="#3f3d56" stroke="#3f3d56" stroke-miterlimit="10" stroke-width="2"/>
  <circle id="Ellipse_57" data-name="Ellipse 57" cx="6.07" cy="6.07" r="6.07" transform="translate(145.39 116.602)" fill="#3f3d56"/>
  <path id="Tracé_113" data-name="Tracé 113" d="M586.594,479.221s-.867-18.649-18.642-16.481" transform="translate(-435.134 -331.831)" fill="#3f3d56"/>
  <path id="Tracé_114" data-name="Tracé 114" d="M586.594,603.755s3.9-35.862-18.642-37.6" transform="translate(-435.134 -395.363)" fill="none" stroke="#3f3d56" stroke-miterlimit="10" stroke-width="2"/>
  <circle id="Ellipse_58" data-name="Ellipse 58" cx="6.07" cy="6.07" r="6.07" transform="translate(126.748 164.725)" fill="#3f3d56"/>
  <line id="Ligne_57" data-name="Ligne 57" x2="125.295" transform="translate(84.499 209.976)" fill="none" stroke="#3f3d56" stroke-miterlimit="10" stroke-width="2"/>
  <circle id="Ellipse_59" data-name="Ellipse 59" cx="12.375" cy="12.375" r="12.375" transform="translate(243.242 123.361)" fill="#f2f2f2"/>
  <circle id="Ellipse_60" data-name="Ellipse 60" cx="12.375" cy="12.375" r="12.375" transform="translate(48.339 46.019)" fill="#f2f2f2"/>
  <circle id="Ellipse_61" data-name="Ellipse 61" cx="12.375" cy="12.375" r="12.375" transform="translate(173.247)" fill="#f2f2f2"/>
</svg>
