<svg xmlns="http://www.w3.org/2000/svg" width="29.892" height="44.585" viewBox="0 0 29.892 44.585">
  <g id="Groupe_215" data-name="Groupe 215" transform="translate(0.125 0.125)">
    <g id="Groupe_208" data-name="Groupe 208" transform="translate(0 0)">
      <path id="Tracé_100" data-name="Tracé 100" d="M34.5,5.03A14.837,14.837,0,0,0,19.675,19.851c0,7.872,13.482,27.483,14.056,28.317l.764,1.1.76-1.1c.574-.834,14.061-20.445,14.061-28.317A14.837,14.837,0,0,0,34.5,5.03Zm0,1.853A12.984,12.984,0,0,1,47.464,19.851c0,6.282-10.081,21.817-12.968,26.135C31.61,41.668,21.528,26.134,21.528,19.851A12.982,12.982,0,0,1,34.5,6.883Z" transform="translate(-19.675 -5.03)" fill="gray" stroke="gray" stroke-width="0.25"/>
    </g>
    <g id="Groupe_209" data-name="Groupe 209" transform="translate(6.191 5.719)">
      <path id="Tracé_101" data-name="Tracé 101" d="M40.98,16.678a8.692,8.692,0,1,0,8.695,8.69A8.7,8.7,0,0,0,40.98,16.678Zm0,15.421a6.729,6.729,0,1,1,6.731-6.731A6.739,6.739,0,0,1,40.98,32.1Z" transform="translate(-32.285 -16.678)" fill="gray" stroke="gray" stroke-width="0.25"/>
    </g>
  </g>
</svg>
