<svg xmlns="http://www.w3.org/2000/svg" width="17.251" height="22.427" viewBox="0 0 17.251 22.427">
  <g id="Groupe_216" data-name="Groupe 216" transform="translate(0.125 0.125)">
    <g id="Groupe_211" data-name="Groupe 211" transform="translate(0 0)">
      <path id="Tracé_102" data-name="Tracé 102" d="M22.5,3.6a4.274,4.274,0,0,0-4.25,4.3v2.125H14.5a.5.5,0,0,0-.5.5V22.276a3.511,3.511,0,0,0,3.5,3.5h10a3.511,3.511,0,0,0,3.5-3.5V10.526a.5.5,0,0,0-.5-.5h-3.75V7.9A4.274,4.274,0,0,0,22.5,3.6ZM19.25,7.9a3.251,3.251,0,1,1,6.5,0v2.125h-6.5ZM30,11.051V22.3a2.508,2.508,0,0,1-2.5,2.5h-10A2.508,2.508,0,0,1,15,22.3V11.051h3.25V12.6a.5.5,0,1,0,1,0v-1.55h6.5V12.6a.5.5,0,1,0,1,0v-1.55Z" transform="translate(-14 -3.6)" fill="gray" stroke="gray" stroke-width="0.25"/>
    </g>
  </g>
</svg>
