<svg xmlns="http://www.w3.org/2000/svg" width="35.349" height="37.148" viewBox="0 0 35.349 37.148">
  <path id="Tracé_82" data-name="Tracé 82" d="M25.166,28.209a30.069,30.069,0,0,0,4.527-3.6c4.179-4.063,7.255-11.086,7.255-11.086s-7.081,2.786-11.2,6.849a30.122,30.122,0,0,0-4.063,4.934A38.459,38.459,0,0,0,22.9,16.02C22.844,8.823,19.245,0,19.245,0V0s-3.6,8.823-3.6,16.02a36.112,36.112,0,0,0,1.219,9.287A30.122,30.122,0,0,0,12.8,20.373C8.623,16.31,1.6,13.524,1.6,13.524s3.018,7.081,7.2,11.086a30.069,30.069,0,0,0,4.527,3.6H11.932a35.983,35.983,0,0,0-9.867,2.032,38.349,38.349,0,0,0,9.984,1.683,29.925,29.925,0,0,0,5.108-.58c-.29.29-.638.58-.987.929a17.821,17.821,0,0,0-2.844,4.3,19.8,19.8,0,0,0,4.237-2.96A18.066,18.066,0,0,0,18.9,31.982l-.116,5.166h.929l-.174-5.166a18.065,18.065,0,0,0,1.335,1.625,19.2,19.2,0,0,0,4.237,2.96,19.715,19.715,0,0,0-2.844-4.3c-.348-.348-.7-.638-.987-.929a25.05,25.05,0,0,0,5.108.58,38.349,38.349,0,0,0,9.984-1.683A35.983,35.983,0,0,0,26.5,28.209Z" transform="translate(-1.6)" fill="#79cea7"/>
</svg>
