<svg xmlns="http://www.w3.org/2000/svg" width="33.74" height="29.43" viewBox="0 0 33.74 29.43">
  <g id="Groupe_101" data-name="Groupe 101" transform="translate(1.099 1.099)">
    <path id="Tracé_1" data-name="Tracé 1" d="M3.847,11.326c4.437,2.384,11.97,2.384,17.749,0s9.8-7.153,5.367-9.538S9.626-.6,3.847,1.788-.59,8.942,3.847,11.326Z" transform="matrix(0.995, 0.105, -0.105, 0.995, 2.845, 4.941)" fill="none" stroke="#fff" stroke-width="2"/>
    <g id="Ellipse_1" data-name="Ellipse 1" transform="translate(2.334 19.78)" fill="none" stroke="#fff" stroke-width="2">
      <ellipse cx="4.275" cy="4.275" rx="4.275" ry="4.275" stroke="none"/>
      <ellipse cx="4.275" cy="4.275" rx="3.275" ry="3.275" fill="none"/>
    </g>
    <g id="Ellipse_2" data-name="Ellipse 2" transform="translate(22.284 19.78)" fill="none" stroke="#fff" stroke-width="2">
      <ellipse cx="4.275" cy="4.275" rx="4.275" ry="4.275" stroke="none"/>
      <ellipse cx="4.275" cy="4.275" rx="3.275" ry="3.275" fill="none"/>
    </g>
    <path id="Tracé_2" data-name="Tracé 2" d="M2.251,11.133,0,0" transform="matrix(0.995, 0.105, -0.105, 0.995, 1.164, 0)" fill="none" stroke="#fff" stroke-linecap="round" stroke-width="2"/>
  </g>
</svg>
