<svg id="Groupe_129" data-name="Groupe 129" xmlns="http://www.w3.org/2000/svg" width="33.427" height="30.878" viewBox="0 0 33.427 30.878">
  <path id="Tracé_59" data-name="Tracé 59" d="M25.451,29.541a.862.862,0,0,0-.862.862v3.174a.779.779,0,0,1-.793.779H4a.779.779,0,0,1-.775-.775V14.3h5.3a2.068,2.068,0,0,0,2.068-2.068V6.923H23.8a.775.775,0,0,1,.775.775v4.48a.862.862,0,1,0,1.723,0V7.7a2.5,2.5,0,0,0-2.5-2.5H10.477a2.626,2.626,0,0,0-1.871.775L2.275,12.306A2.626,2.626,0,0,0,1.5,14.177v19.4a2.5,2.5,0,0,0,2.5,2.5H23.8a2.505,2.505,0,0,0,2.5-2.5V30.4a.862.862,0,0,0-.848-.862ZM8.875,8.143v4.084a.345.345,0,0,1-.345.345h-4.1Z" transform="translate(-1.5 -5.2)" fill="#79cea7"/>
  <path id="Tracé_60" data-name="Tracé 60" d="M56.726,25.053a2.175,2.175,0,0,0-3.071,0L39.791,38.914a.865.865,0,0,0-.241.479l-.689,4.6a.862.862,0,0,0,.851.993h.131l4.573-.724a.865.865,0,0,0,.479-.241L58.77,30.171a2.171,2.171,0,0,0,0-3.071Zm.827,3.9L43.892,42.612l-3.16.482.482-3.16L54.872,26.27a.448.448,0,0,1,.634,0l2.044,2.047a.448.448,0,0,1,0,.634Z" transform="translate(-25.979 -17.796)" fill="#79cea7"/>
  <path id="Tracé_61" data-name="Tracé 61" d="M44.451,25.9a.862.862,0,0,0-.862-.862H37.952a.862.862,0,1,0,0,1.723H43.59A.862.862,0,0,0,44.451,25.9Z" transform="translate(-24.825 -18.203)" fill="#79cea7"/>
  <path id="Tracé_62" data-name="Tracé 62" d="M30.1,39.992a.862.862,0,0,0-.862-.862H16.822a.862.862,0,1,0,0,1.723H29.249a.862.862,0,0,0,.855-.862Z" transform="translate(-10.977 -27.437)" fill="#79cea7"/>
  <path id="Tracé_63" data-name="Tracé 63" d="M24.989,54.072a.862.862,0,0,0-.862-.862H16.822a.862.862,0,1,0,0,1.723h7.306A.862.862,0,0,0,24.989,54.072Z" transform="translate(-10.977 -36.665)" fill="#79cea7"/>
  <path id="Tracé_64" data-name="Tracé 64" d="M16.822,67.3a.862.862,0,1,0,0,1.723H21.7a.862.862,0,0,0,0-1.723Z" transform="translate(-10.977 -45.899)" fill="#79cea7"/>
</svg>
