<svg xmlns="http://www.w3.org/2000/svg" width="106.344" height="21.636" viewBox="0 0 106.344 21.636">
  <path id="Tracé_103" data-name="Tracé 103" d="M11.988-18.468a9.412,9.412,0,0,1,4.824,1.3L18.468-19.4a10.644,10.644,0,0,0-6.444-2.016,11.7,11.7,0,0,0-7.056,2.268C2.844-17.568,1.44-14.724,1.44-11.016A11.629,11.629,0,0,0,4.068-3.1,10.884,10.884,0,0,0,12.06.216a10.086,10.086,0,0,0,6.372-2.052l-1.62-2.232a9.29,9.29,0,0,1-4.824,1.332,7.5,7.5,0,0,1-3.816-.828c-1.98-.936-3.6-3.024-3.6-7.344C4.572-15.948,7.056-18.468,11.988-18.468ZM32.544-8.82C32.4-12.708,29.916-14.8,25.488-14.8a13.493,13.493,0,0,0-4.86.792v2.628a22.537,22.537,0,0,1,3.492-.468c4.032,0,5.292,1.116,5.292,3.132v1.188A9.988,9.988,0,0,0,23.976-9c-3.132,0-4.788,1.836-4.788,4.392A4.6,4.6,0,0,0,23.868.216H24.3a6.949,6.949,0,0,0,5.112-1.764L29.592,0h2.952Zm-3.42,5.076a5.843,5.843,0,0,1-3.6,1.008c-2.124,0-3.2-.576-3.2-1.764,0-1.152.648-1.728,3.2-1.728a5.548,5.548,0,0,1,3.888,1.26V-4.1ZM37.3-9.18l.144-.252a4.567,4.567,0,0,1,3.924-2.412,2.678,2.678,0,0,1,2.952,2.808V0h3.132V-9.432a5.168,5.168,0,0,0-1.584-3.78A4.9,4.9,0,0,0,42.372-14.8,6.738,6.738,0,0,0,37.3-12.924l-.36-1.656H34.164V0H37.3Zm24.768.36c-.144-3.888-2.628-5.976-7.056-5.976a13.493,13.493,0,0,0-4.86.792v2.628a22.537,22.537,0,0,1,3.492-.468c4.032,0,5.292,1.116,5.292,3.132v1.188A9.988,9.988,0,0,0,53.5-9c-3.132,0-4.788,1.836-4.788,4.392A4.6,4.6,0,0,0,53.388.216h.432a6.949,6.949,0,0,0,5.112-1.764L59.112,0h2.952Zm-3.42,5.076a5.843,5.843,0,0,1-3.6,1.008c-2.124,0-3.2-.576-3.2-1.764,0-1.152.648-1.728,3.2-1.728a5.548,5.548,0,0,1,3.888,1.26V-4.1ZM70.02-14.8a8.908,8.908,0,0,0-4.32.972,3.307,3.307,0,0,0-1.836,3.1c0,4.608,9.216,4.932,9.216,6.948,0,.684-1.116,1.044-3.312,1.044A29.02,29.02,0,0,1,64.476-3.6V-.864A12.905,12.905,0,0,0,69.948.216c4.032,0,6.264-1.548,6.264-4.392a3.165,3.165,0,0,0-1.44-2.52A10.561,10.561,0,0,0,71.6-8.316a23.246,23.246,0,0,1-3.168-1.152c-.972-.432-1.44-.864-1.44-1.3,0-.54.18-.828.936-.972a17.174,17.174,0,0,1,2.772-.108,26.2,26.2,0,0,1,3.924.468V-14A10.391,10.391,0,0,0,70.02-14.8ZM81.036,0V-14.58H77.9V0Zm0-16.884v-3.06H77.9v3.06Zm3.816,11.2a7.061,7.061,0,0,0,.936,4.032C86.472-.468,87.912.216,90.072.216a5.207,5.207,0,0,0,3.06-.648V-2.916c-.072,0-.4.036-.972.072q-.918.108-1.188.108a3.857,3.857,0,0,1-2.34-.5c-.4-.324-.576-1.188-.576-2.556v-5.868h5.076V-14.58H88.056v-5.4h-.324L82.3-13.572v1.908h2.556Zm22.932-2.52c0-3.924-2.34-6.588-6.66-6.588s-6.732,3.132-6.732,7.488c0,4.428,2.484,7.524,7.272,7.524a15.724,15.724,0,0,0,5.112-.72V-3.168a35.59,35.59,0,0,1-4.032.432,6.748,6.748,0,0,1-3.78-.756,3.932,3.932,0,0,1-1.44-2.52h10.26Zm-10.26-.5c.432-2.16,1.44-3.132,3.564-3.132,2.052,0,3.168.792,3.6,3.132Z" transform="translate(-1.44 21.42)" fill="#fff"/>
</svg>
