<svg xmlns="http://www.w3.org/2000/svg" width="83.692" height="67.874" viewBox="0 0 83.692 67.874">
  <g id="Groupe_204" data-name="Groupe 204" transform="translate(-3.768 -7.724)">
    <g id="Groupe_203" data-name="Groupe 203">
      <path id="Tracé_96" data-name="Tracé 96" d="M50.867,14.55,16.313,52.7,3.768,54.727,16.5,75.6l6.871-10.91,4.242-1.059,5.006,8.83,20.766-5.09-.311-10.088,21.618-5.393ZM21.258,61.768l-4.712,7.48L9.214,57.236l8.794-1.422L44.74,26.3,54.4,41.664l2.827-1.776L47.072,23.723l3.331-3.68L69.37,49.766Zm28.7,2.994L34.281,68.606l-3.3-5.814L49.754,58.11Z"/>
      <rect id="Rectangle_105" data-name="Rectangle 105" width="10.766" height="3.343" transform="translate(76.221 39.146) rotate(-12.862)"/>
      <rect id="Rectangle_106" data-name="Rectangle 106" width="3.346" height="15.362" transform="translate(84.036 18.502) rotate(62.407)"/>
      <rect id="Rectangle_107" data-name="Rectangle 107" width="3.346" height="10.753" transform="matrix(0.751, 0.66, -0.66, 0.751, 67.447, 7.724)"/>
    </g>
  </g>
</svg>
