<svg xmlns="http://www.w3.org/2000/svg" width="37.309" height="27.935" viewBox="0 0 37.309 27.935">
  <g id="Groupe_130" data-name="Groupe 130" transform="translate(0 0.534)">
    <g id="Groupe_29" data-name="Groupe 29" transform="translate(0 0)">
      <g id="Groupe_27" data-name="Groupe 27">
        <path id="Tracé_5" data-name="Tracé 5" d="M16.707,37.7a1.538,1.538,0,0,0,2.846.711A62.2,62.2,0,0,1,29.46,26.088a15.039,15.039,0,0,1,12.883-4v1.791A15.021,15.021,0,0,0,30.37,29.34,62.359,62.359,0,0,0,23.4,39.788a35.039,35.039,0,0,1-4.92,7.035,7.422,7.422,0,0,1-12.811-6.34A27.378,27.378,0,0,1,7.092,35.52H16.66C16.646,36.245,16.663,36.973,16.707,37.7Z" transform="translate(-5.534 -21.882)" fill="#79cea7"/>
        <path id="Tracé_6" data-name="Tracé 6" d="M64.694,26.088a15.039,15.039,0,0,1,12.883-4v1.791c-4.619-.116-7.658,1.523-11.02,4.391Z" transform="translate(-40.767 -21.882)" fill="#6bb592" stroke="rgba(0,0,0,0)" stroke-width="1"/>
      </g>
      <g id="Groupe_28" data-name="Groupe 28" transform="translate(0.811 13.638)">
        <path id="Tracé_5-2" data-name="Tracé 5" d="M17.9,57.782H7.539A16.066,16.066,0,0,1,8.286,55.6h9.568C17.84,56.329,17.857,57.057,17.9,57.782Z" transform="translate(-7.539 -55.604)" fill="#6bb592"/>
      </g>
    </g>
    <path id="Tracé_7" data-name="Tracé 7" d="M0,2.305C0-2.1,2.637,1.4,2.637,1.4S5.1,4.222,5.261,0" transform="translate(9.87 6.176) rotate(90)" fill="none" stroke="#6bb592" stroke-width="1"/>
    <path id="Tracé_8" data-name="Tracé 8" d="M0,2.305C0-2.1,2.637,1.4,2.637,1.4S5.1,4.222,5.261,0" transform="translate(4.796 6.176) rotate(90)" fill="none" stroke="#6bb592" stroke-width="1"/>
  </g>
</svg>
