<svg xmlns="http://www.w3.org/2000/svg" width="36.547" height="24.351" viewBox="0 0 36.547 24.351">
  <path id="Union_4" data-name="Union 4" d="M8.018,20.273a2.608,2.608,0,0,1,.013-.263H0c.082-.016,3.413-.022,8.034-.023a2.578,2.578,0,0,1,5.123,0c10.475,0,23.387.022,23.387.022H13.159a2.606,2.606,0,0,1,.013.263,2.577,2.577,0,1,1-5.155,0Zm16.608-8.848a2.606,2.606,0,0,1,.013-.264H0c.168-.032,14.039-.024,24.641-.014a2.577,2.577,0,0,1,5.125.005l6.778.009H29.767a2.606,2.606,0,0,1,.013.264,2.577,2.577,0,0,1-5.155,0ZM15.462,2.577a2.6,2.6,0,0,1,.013-.263H0c.121-.023,7.43-.026,15.478-.021a2.578,2.578,0,0,1,5.124,0c8.3.007,15.942.018,15.942.018H20.6a2.608,2.608,0,0,1,.013.263,2.577,2.577,0,1,1-5.155,0Z" transform="translate(0.002 0.75)" fill="none" stroke="#79cea7" stroke-linecap="round" stroke-width="1.5"/>
</svg>
