<svg xmlns="http://www.w3.org/2000/svg" width="38.223" height="35.83" viewBox="0 0 38.223 35.83">
  <g id="Groupe_132" data-name="Groupe 132" transform="translate(0)">
    <rect id="Rectangle_26" data-name="Rectangle 26" width="21.113" height="29.558" transform="translate(20.901 0) rotate(45)" fill="#79cea7"/>
    <path id="Tracé_17" data-name="Tracé 17" d="M0,0H21.113V2.413H0Z" transform="translate(1.706 19.195) rotate(45)" fill="#6bb592"/>
    <path id="Tracé_16" data-name="Tracé 16" d="M0,0H21.113V2.413H0Z" transform="translate(20.901 0) rotate(45)" fill="#6bb592"/>
    <path id="Tracé_18" data-name="Tracé 18" d="M306.368,1785.53a3,3,0,0,0,2.181,1.044,4.273,4.273,0,0,0,2.392-1.044,2.843,2.843,0,0,0-2.392-1.112A2.274,2.274,0,0,0,306.368,1785.53Z" transform="translate(-278.667 -1784.417)" fill="#6bb592"/>
    <path id="Tracé_19" data-name="Tracé 19" d="M306.368,1785.53a3,3,0,0,0,2.181,1.044,4.273,4.273,0,0,0,2.392-1.044,2.843,2.843,0,0,0-2.392-1.112A2.274,2.274,0,0,0,306.368,1785.53Z" transform="translate(-272.719 -1781.443)" fill="#79cea7"/>
    <path id="Tracé_20" data-name="Tracé 20" d="M306.368,1785.53a3,3,0,0,0,2.181,1.044,4.273,4.273,0,0,0,2.392-1.044,2.843,2.843,0,0,0-2.392-1.112A2.274,2.274,0,0,0,306.368,1785.53Z" transform="translate(-272.719 -1776.239)" fill="#6bb592"/>
  </g>
</svg>
