<svg xmlns="http://www.w3.org/2000/svg" width="45.826" height="45.826" viewBox="0 0 45.826 45.826">
  <g id="Groupe_198" data-name="Groupe 198" transform="translate(-6 -958.362)">
    <path id="Tracé_68" data-name="Tracé 68" d="M30.5,958.362a13.078,13.078,0,0,1-.669,2.246,8.556,8.556,0,0,1-1.063,2.006,2.674,2.674,0,0,1-1.783,1.2,2.679,2.679,0,0,1-2.006-.771,8.633,8.633,0,0,1-1.457-1.749,12.937,12.937,0,0,1-1.132-2.04,19.325,19.325,0,0,0-2.469.754,22.927,22.927,0,0,0-3.909,2.126,20.241,20.241,0,0,0-2.177,1.8,12.945,12.945,0,0,1,1.114,2.057,8.637,8.637,0,0,1,.669,2.177,2.64,2.64,0,0,1-.411,2.092,2.665,2.665,0,0,1-1.954.874,8.6,8.6,0,0,1-2.263-.189,12.972,12.972,0,0,1-2.263-.651,18,18,0,0,0-1.1,2.006,22.785,22.785,0,0,0-1.337,4.32A21.181,21.181,0,0,0,6,979.672a13.125,13.125,0,0,1,2.229.669,8.675,8.675,0,0,1,2.023,1.063,2.322,2.322,0,0,1,.411,3.772,8.681,8.681,0,0,1-1.732,1.492A12.592,12.592,0,0,1,6.874,987.8a19.3,19.3,0,0,0,.754,2.469,23.007,23.007,0,0,0,2.143,3.909,20.261,20.261,0,0,0,1.8,2.177,12.985,12.985,0,0,1,2.057-1.114,8.639,8.639,0,0,1,2.177-.669,2.64,2.64,0,0,1,2.092.411,2.648,2.648,0,0,1,.857,1.954,8.6,8.6,0,0,1-.189,2.263,12.958,12.958,0,0,1-.652,2.263,17.757,17.757,0,0,0,2.006,1.08,22.822,22.822,0,0,0,4.32,1.354,21.4,21.4,0,0,0,3.069.291,12.511,12.511,0,0,1,.652-2.229,8.676,8.676,0,0,1,1.063-2.023,2.655,2.655,0,0,1,1.783-1.183,2.679,2.679,0,0,1,2.006.771,8.6,8.6,0,0,1,1.474,1.732,13.365,13.365,0,0,1,1.149,2.04,19.265,19.265,0,0,0,2.452-.754,23.05,23.05,0,0,0,3.926-2.126,20.149,20.149,0,0,0,2.16-1.8,12.951,12.951,0,0,1-1.114-2.057,8.637,8.637,0,0,1-.669-2.177,2.647,2.647,0,0,1,.429-2.092,2.616,2.616,0,0,1,1.937-.857,8.6,8.6,0,0,1,2.263.172,12.766,12.766,0,0,1,2.246.651,17.765,17.765,0,0,0,1.1-1.989,22.984,22.984,0,0,0,1.354-4.337,21.272,21.272,0,0,0,.309-3.052,12.439,12.439,0,0,1-2.246-.652,8.679,8.679,0,0,1-2.023-1.063,2.688,2.688,0,0,1-1.183-1.8,2.641,2.641,0,0,1,.771-1.989,8.6,8.6,0,0,1,1.732-1.474,13.2,13.2,0,0,1,2.057-1.149,19.709,19.709,0,0,0-.772-2.452,23.081,23.081,0,0,0-2.126-3.926,20.466,20.466,0,0,0-1.783-2.16,13.3,13.3,0,0,1-2.074,1.114A8.615,8.615,0,0,1,42,968a2.682,2.682,0,0,1-2.109-.428,2.645,2.645,0,0,1-.857-1.955,8.721,8.721,0,0,1,.189-2.28,12.912,12.912,0,0,1,.652-2.263,17.9,17.9,0,0,0-1.989-1.063,22.939,22.939,0,0,0-4.337-1.337,21.276,21.276,0,0,0-3.052-.309ZM28.9,971.495a9.772,9.772,0,1,1-9.772,9.772A9.783,9.783,0,0,1,28.9,971.495Z" transform="translate(0 0)" fill="#79cea7"/>
    <path id="Tracé_69" data-name="Tracé 69" d="M44.947,991.819a5.491,5.491,0,1,1-5.491,5.491A5.486,5.486,0,0,1,44.947,991.819Z" transform="translate(-16.034 -16.034)" fill="#6bb592"/>
  </g>
</svg>
