<svg xmlns="http://www.w3.org/2000/svg" width="40.324" height="21.893" viewBox="0 0 40.324 21.893">
  <g id="Groupe_41" data-name="Groupe 41" transform="translate(0.5 0.5)">
    <path id="Tracé_32" data-name="Tracé 32" d="M276.245,1607.893h4.312" transform="translate(-273.939 -1603.611)" fill="none" stroke="#fff" stroke-linecap="round" stroke-width="1"/>
    <path id="Tracé_33" data-name="Tracé 33" d="M276.245,1607.893h4.312" transform="translate(-276.245 -1599.844)" fill="none" stroke="#fff" stroke-linecap="round" stroke-width="1"/>
    <path id="Tracé_34" data-name="Tracé 34" d="M276.245,1607.893h4.312" transform="translate(-274.862 -1596.539)" fill="none" stroke="#fff" stroke-linecap="round" stroke-width="1"/>
    <g id="Ellipse_16" data-name="Ellipse 16" transform="translate(13.876 15.859)" fill="none" stroke="#fff" stroke-linecap="round" stroke-width="1">
      <ellipse cx="2.767" cy="2.767" rx="2.767" ry="2.767" stroke="none"/>
      <ellipse cx="2.767" cy="2.767" rx="2.267" ry="2.267" fill="none"/>
    </g>
    <g id="Ellipse_17" data-name="Ellipse 17" transform="translate(26.788 15.859)" fill="none" stroke="#fff" stroke-linecap="round" stroke-width="1">
      <ellipse cx="2.767" cy="2.767" rx="2.767" ry="2.767" stroke="none"/>
      <ellipse cx="2.767" cy="2.767" rx="2.267" ry="2.267" fill="none"/>
    </g>
    <path id="Tracé_36" data-name="Tracé 36" d="M287.723,1598.607H293.4l4.222,5.019h-9.9Z" transform="translate(-258.296 -1594.687)" fill="none" stroke="#fff" stroke-linecap="round" stroke-linejoin="round" stroke-width="1"/>
    <path id="Soustraction_3" data-name="Soustraction 3" d="M4.975,17.7H0V0H19.795V16.365A2.261,2.261,0,0,0,17.887,17.7H9.114a2.267,2.267,0,0,0-4.139,0Zm24.751,0h-7.7a2.271,2.271,0,0,0-2.07-1.342c-.042,0-.085,0-.128,0V8.851h9.9V17.7Z" transform="translate(9.598 0)" fill="none" stroke="#fff" stroke-linecap="round" stroke-linejoin="round" stroke-width="1"/>
  </g>
</svg>
