<svg xmlns="http://www.w3.org/2000/svg" width="21.879" height="21" viewBox="0 0 21.879 21">
  <path id="Tracé_41" data-name="Tracé 41" d="M26.578,17.445A1.838,1.838,0,0,0,25.56,14.31l-4.388-.638a1.122,1.122,0,0,1-.845-.614L18.363,9.081a1.838,1.838,0,0,0-3.3,0L13.1,13.058a1.122,1.122,0,0,1-.845.614l-4.388.638a1.838,1.838,0,0,0-1.018,3.135l3.175,3.1a1.122,1.122,0,0,1,.323.994L9.6,25.9A1.8,1.8,0,0,0,10,27.4a1.844,1.844,0,0,0,1.411.662,1.825,1.825,0,0,0,.856-.214l3.925-2.063a1.141,1.141,0,0,1,1.045,0l3.925,2.063a1.821,1.821,0,0,0,.855.214h0a1.844,1.844,0,0,0,1.411-.662,1.8,1.8,0,0,0,.4-1.49l-.75-4.371a1.122,1.122,0,0,1,.323-.994Z" transform="translate(-5.776 -7.557)" fill="#79cea7" stroke="#79cea7" stroke-width="1"/>
</svg>
