<svg xmlns="http://www.w3.org/2000/svg" width="30.199" height="28.99" viewBox="0 0 30.199 28.99">
  <path id="Tracé_80" data-name="Tracé 80" d="M34.175,20.961a2.526,2.526,0,0,0-1.4-4.309l-6.032-.877a1.543,1.543,0,0,1-1.162-.844l-2.7-5.466a2.526,2.526,0,0,0-4.531,0l-2.7,5.466a1.543,1.543,0,0,1-1.162.844l-6.032.877a2.526,2.526,0,0,0-1.4,4.309l4.365,4.255a1.542,1.542,0,0,1,.444,1.366l-1.031,6.008a2.479,2.479,0,0,0,.551,2.048,2.535,2.535,0,0,0,1.939.909,2.508,2.508,0,0,0,1.176-.295l5.4-2.836a1.568,1.568,0,0,1,1.436,0l5.4,2.836a2.5,2.5,0,0,0,1.176.295h0a2.535,2.535,0,0,0,1.939-.91,2.478,2.478,0,0,0,.551-2.048l-1.031-6.008a1.543,1.543,0,0,1,.444-1.366Z" transform="translate(-5.518 -7.307)" fill="none" stroke="#79cea7" stroke-width="1.5"/>
</svg>
