<svg xmlns="http://www.w3.org/2000/svg" width="93.479" height="95" viewBox="0 0 93.479 95">
  <path id="Tracé_95" data-name="Tracé 95" d="M51.07,24.65h0M50,26.83l5.74,11.62a3.84,3.84,0,0,0,2.92,2.12l12.83,1.87L62.2,51.49a3.87,3.87,0,0,0-1.11,3.43L63.28,67.7l-11.48-6a3.9,3.9,0,0,0-3.6,0l-11.48,6,2.19-12.78a3.87,3.87,0,0,0-1.11-3.43l-9.29-9.05,12.83-1.87a3.84,3.84,0,0,0,2.92-2.12L50,26.83m0-4a1.32,1.32,0,0,0-1.2.75L42,37.33a1.32,1.32,0,0,1-1,.73L25.75,40.28A1.33,1.33,0,0,0,25,42.56L36,53.3a1.34,1.34,0,0,1,.38,1.19l-2.6,15.17a1.35,1.35,0,0,0,1.32,1.57,1.27,1.27,0,0,0,.62-.16l13.63-7.16a1.28,1.28,0,0,1,1.24,0l13.63,7.16a1.27,1.27,0,0,0,.62.16,1.35,1.35,0,0,0,1.32-1.57l-2.6-15.17A1.34,1.34,0,0,1,64,53.3L75,42.56a1.33,1.33,0,0,0-.74-2.28L59,38.06a1.32,1.32,0,0,1-1-.73l-6.8-13.8a1.32,1.32,0,0,0-1.2-.75ZM51.27,8.84V3.77a1.27,1.27,0,1,0-2.54,0V8.84a1.27,1.27,0,0,0,2.54,0ZM27.44,19.16a1.25,1.25,0,0,0,.27-1.77l-5-6.81a1.27,1.27,0,1,0-2,1.5l5,6.81a1.26,1.26,0,0,0,1.77.27ZM12.14,37.39a1.27,1.27,0,0,0-.8-1.6l-4.81-1.6a1.27,1.27,0,1,0-.81,2.4l4.82,1.6a1.09,1.09,0,0,0,.4.07,1.27,1.27,0,0,0,1.2-.87ZM4.92,65.5l8-2.67a1.265,1.265,0,0,0-.8-2.4l-8,2.67a1.27,1.27,0,0,0,.4,2.47,1.12,1.12,0,0,0,.4-.07Zm18.8,20.87,3-4.09a1.25,1.25,0,0,0-.27-1.77,1.27,1.27,0,0,0-1.77.27l-3,4.09A1.26,1.26,0,0,0,22,86.64a1.2,1.2,0,0,0,.74.25,1.28,1.28,0,0,0,.98-.52Zm27.55,9.86V87.78a1.27,1.27,0,0,0-2.54,0v8.45a1.27,1.27,0,0,0,2.54,0Zm26.78-9.59a1.26,1.26,0,0,0,.28-1.77l-3-4.09a1.27,1.27,0,0,0-1.77-.27,1.25,1.25,0,0,0-.27,1.77l3,4.09a1.28,1.28,0,0,0,1,.52,1.2,1.2,0,0,0,.76-.25ZM96.68,64.7a1.27,1.27,0,0,0-.8-1.6l-8-2.67a1.265,1.265,0,0,0-.8,2.4l8,2.67a1.12,1.12,0,0,0,.4.07,1.27,1.27,0,0,0,1.2-.87ZM89.46,38.19l4.82-1.6a1.27,1.27,0,1,0-.81-2.4l-4.81,1.6a1.27,1.27,0,0,0,.4,2.47,1.09,1.09,0,0,0,.4-.07ZM74.33,18.89l5-6.81a1.27,1.27,0,1,0-2-1.5l-5,6.81a1.27,1.27,0,1,0,2,1.5Z" transform="translate(-3.266 -2.5)"/>
</svg>
